<svg width="25" height="25" viewBox="0 0 25 25" fill="none" xmlns="http://www.w3.org/2000/svg">
<mask id="mask0_253_16" style="mask-type:alpha" maskUnits="userSpaceOnUse" x="0" y="0" width="25" height="25">
<rect x="0.992188" y="0.119385" width="24" height="24" fill="#D9D9D9"/>
</mask>
<g mask="url(#mask0_253_16)">
<path d="M21.9922 7.11938V19.1194C21.9922 19.6694 21.7965 20.1404 21.4052 20.5324C21.0132 20.9237 20.5422 21.1194 19.9922 21.1194H5.99219C5.44219 21.1194 4.97119 20.9237 4.57919 20.5324C4.18785 20.1404 3.99219 19.6694 3.99219 19.1194V5.11938C3.99219 4.56938 4.18785 4.09838 4.57919 3.70638C4.97119 3.31505 5.44219 3.11938 5.99219 3.11938H17.9922L21.9922 7.11938ZM19.9922 7.96938L17.1422 5.11938H5.99219V19.1194H19.9922V7.96938ZM12.9922 18.1194C13.8255 18.1194 14.5339 17.8277 15.1172 17.2444C15.7005 16.6611 15.9922 15.9527 15.9922 15.1194C15.9922 14.2861 15.7005 13.5777 15.1172 12.9944C14.5339 12.4111 13.8255 12.1194 12.9922 12.1194C12.1589 12.1194 11.4505 12.4111 10.8672 12.9944C10.2839 13.5777 9.99219 14.2861 9.99219 15.1194C9.99219 15.9527 10.2839 16.6611 10.8672 17.2444C11.4505 17.8277 12.1589 18.1194 12.9922 18.1194ZM6.99219 10.1194H15.9922V6.11938H6.99219V10.1194Z" fill="white"/>
</g>
</svg>
